<svg xmlns="http://www.w3.org/2000/svg" width="84" height="84" viewBox="0 0 84 84"><g transform="translate(-1273 -9205.326)"><g transform="translate(1273 9205.326)"><circle cx="42" cy="42" r="42" fill="#d0e5cf"/></g><g transform="translate(1278.84 9211.666)"><g transform="translate(7.5 7.5)"><path d="M62.119,29.2c-.634-2.372.066-5.3-1.136-7.376-1.219-2.107-4.115-2.957-5.825-4.666s-2.56-4.606-4.666-5.825c-2.077-1.2-5-.5-7.376-1.135-2.293-.613-4.471-2.7-6.957-2.7S31.5,9.587,29.2,10.2c-2.372.634-5.3-.066-7.376,1.135-2.107,1.219-2.957,4.115-4.666,5.825s-4.606,2.56-5.825,4.666c-1.2,2.077-.5,5-1.136,7.376C9.587,31.5,7.5,33.674,7.5,36.16s2.087,4.664,2.7,6.957c.634,2.372-.066,5.3,1.136,7.376,1.219,2.107,4.115,2.957,5.825,4.666s2.56,3.725,4.666,4.944c2.077,1.2,5,.5,7.376,1.135,2.293.613,4.471,3.581,6.957,3.581s4.664-2.087,6.957-2.7c2.372-.634,5.3.066,7.376-1.135,2.107-1.219,2.957-4.115,4.666-5.825s4.606-2.56,5.825-4.666c1.2-2.077.5-5,1.136-7.376.613-2.293,2.7-4.471,2.7-6.957S62.732,31.5,62.119,29.2Z" transform="translate(-7.5 -7.5)" fill="#ffeac6"/><path d="M11.336,90.582c-1.2,2.077-.5,5-1.136,7.376-.613,2.293-2.7,4.471-2.7,6.957s2.088,4.664,2.7,6.957c.634,2.372-.066,5.3,1.136,7.376,1.219,2.107,4.115,2.957,5.825,4.666s2.56,4.606,4.666,5.825c2.077,1.2,5,.5,7.376,1.135,2.293.613,4.471,2.7,6.957,2.7s4.664-2.087,6.957-2.7c2.372-.634,5.3.066,7.376-1.135,2.107-1.219,2.957-4.115,4.666-5.825a7.44,7.44,0,0,1,.7-.61l-.045-.045a2.6,2.6,0,0,0-2.084-.751,2.552,2.552,0,0,0-1.878,1.1c-.305.446-.589.9-.867,1.353a7.508,7.508,0,0,1-1.88,2.378,7.525,7.525,0,0,1-2.96.434,16.159,16.159,0,0,0-3.743.423,15.484,15.484,0,0,0-3.361,1.474A7.382,7.382,0,0,1,36.16,130.8a7.388,7.388,0,0,1-2.881-1.133,15.475,15.475,0,0,0-3.359-1.473,16.164,16.164,0,0,0-3.746-.423,7.523,7.523,0,0,1-2.957-.433,7.529,7.529,0,0,1-1.885-2.386,15.76,15.76,0,0,0-2.209-3,15.847,15.847,0,0,0-3.011-2.216,7.384,7.384,0,0,1-2.374-1.878,7.58,7.58,0,0,1-.434-2.978,16.06,16.06,0,0,0-.423-3.726,15.477,15.477,0,0,0-1.473-3.359,7.377,7.377,0,0,1-1.133-2.881,7.381,7.381,0,0,1,1.133-2.881,15.484,15.484,0,0,0,1.473-3.359A16.2,16.2,0,0,0,13.3,94.93a7.51,7.51,0,0,1,.434-2.959,7.457,7.457,0,0,1,2.4-1.892c.442-.274.891-.552,1.331-.853a2.556,2.556,0,0,0,1.1-1.881,2.6,2.6,0,0,0-.752-2.082l-.044-.043a7.435,7.435,0,0,1-.609.7C15.451,87.626,12.555,88.476,11.336,90.582Z" transform="translate(-7.5 -76.256)" fill="#fcdbb2"/><path d="M194.778,155.555a1.849,1.849,0,0,0-2.615,0l-36.609,36.609a1.849,1.849,0,1,0,2.615,2.615l36.609-36.609A1.849,1.849,0,0,0,194.778,155.555Z" transform="translate(-138 -138)" fill="#ffaa5a"/><rect width="38.829" height="3.698" transform="translate(22.13 49.587) rotate(-45)" fill="#ff8b57"/><path d="M234.025,214.645l-3.922-3.922-8.439,5.824-15.1,15.1a1.849,1.849,0,0,0,0,2.615l3.922,3.922a1.849,1.849,0,0,0,2.615,0l20.919-20.919A1.849,1.849,0,0,0,234.025,214.645Z" transform="translate(-183.131 -187.285)" fill="#ffc263"/><path d="M230.756,207.222l-.654-.654a1.849,1.849,0,0,0-2.615,0l-20.919,20.919a1.849,1.849,0,0,0,0,2.615l3.922,3.922a1.849,1.849,0,0,0,2.615,0l.654-.654-2.615-2.615a2.779,2.779,0,0,1,0-3.923Z" transform="translate(-183.131 -183.131)" fill="#ffaa5a"/></g><g transform="translate(7.5 7.5)"><path d="M225.658,208.4l1.83-1.83a1.849,1.849,0,0,1,2.615,0l3.922,3.922a1.849,1.849,0,0,1,0,2.615l-20.919,20.919a1.849,1.849,0,0,1-2.615,0l-3.922-3.922a1.849,1.849,0,0,1,0-2.615L223,211.061" transform="translate(-183.131 -183.131)" fill="none" stroke="#000" stroke-linecap="round" stroke-linejoin="round" stroke-miterlimit="10" stroke-width="1"/><path d="M164.706,423.064l-6.537,6.537a1.849,1.849,0,0,1-2.615,0h0a1.849,1.849,0,0,1,0-2.615l6.537-6.537" transform="translate(-138 -372.823)" fill="none" stroke="#000" stroke-linecap="round" stroke-linejoin="round" stroke-miterlimit="10" stroke-width="1"/><path d="M420.449,162.091l6.537-6.537a1.849,1.849,0,0,1,2.615,0h0a1.849,1.849,0,0,1,0,2.615l-6.537,6.537" transform="translate(-372.823 -138)" fill="none" stroke="#000" stroke-linecap="round" stroke-linejoin="round" stroke-miterlimit="10" stroke-width="1"/><path d="M230.25,261.047a6.849,6.849,0,0,0,2.97.832c2.486,0,4.664-2.087,6.957-2.7,2.372-.634,5.3.066,7.376-1.135,2.107-1.219,2.957-4.115,4.666-5.825s4.606-2.56,5.825-4.666c1.2-2.077.5-5,1.136-7.376.613-2.293,2.7-4.471,2.7-6.957a6.848,6.848,0,0,0-.832-2.97" transform="translate(-204.56 -204.56)" fill="none" stroke="#000" stroke-linecap="round" stroke-linejoin="round" stroke-miterlimit="10" stroke-width="1"/><path d="M60.63,21.337c-1.355-1.752-3.9-2.608-5.471-4.176-1.71-1.71-2.56-4.606-4.666-5.825-2.077-1.2-5-.5-7.376-1.136-2.293-.613-4.471-2.7-6.957-2.7S31.5,9.587,29.2,10.2c-2.372.634-5.3-.066-7.376,1.135-2.107,1.219-2.957,4.115-4.666,5.825s-4.606,2.56-5.825,4.666c-1.2,2.077-.5,5-1.136,7.376C9.587,31.5,7.5,33.674,7.5,36.16s2.087,4.664,2.7,6.957c.634,2.372-.066,5.3,1.135,7.376,1.219,2.107,4.115,2.957,5.825,4.666,1.567,1.567,2.423,4.116,4.176,5.472" transform="translate(-7.5 -7.5)" fill="none" stroke="#000" stroke-linecap="round" stroke-linejoin="round" stroke-miterlimit="10" stroke-width="1"/><line x1="15.181" y1="15.181" transform="translate(16.179 16.179)" fill="none" stroke="#000" stroke-linecap="round" stroke-linejoin="round" stroke-miterlimit="10" stroke-width="1"/><line x1="5.474" y1="5.474" transform="translate(30.046 21.726)" fill="none" stroke="#000" stroke-linecap="round" stroke-linejoin="round" stroke-miterlimit="10" stroke-width="1"/><line x1="5.474" y1="5.474" transform="translate(21.726 30.046)" fill="none" stroke="#000" stroke-linecap="round" stroke-linejoin="round" stroke-miterlimit="10" stroke-width="1"/></g></g></g></svg>